<?xml version="1.0" encoding="utf-8"?>
<!-- Generator: Adobe Illustrator 27.5.0, SVG Export Plug-In . SVG Version: 6.00 Build 0)  -->
<svg version="1.1" xmlns="http://www.w3.org/2000/svg" xmlns:xlink="http://www.w3.org/1999/xlink" x="0px" y="0px"
	 viewBox="0 0 750 500" style="enable-background:new 0 0 750 500;" xml:space="preserve">
<g id="BACKGROUND">
	<circle style="fill:#17014C;" cx="692" cy="259.097" r="4.5"/>
	<circle style="fill:#4E69FF;" cx="96.559" cy="427.305" r="4.5"/>
	<circle style="fill:#4E69FF;" cx="655.5" cy="388.5" r="3.5"/>
	<circle style="opacity:0.47;fill:#9FBFFF;" cx="637.253" cy="431.805" r="3.5"/>
	<circle style="fill:#9FBFFF;" cx="59.235" cy="95.845" r="3.5"/>
	<path style="fill:#4E69FF;" d="M677.912,115.325c0,2.68-2.172,4.852-4.852,4.852c-2.68,0-4.852-2.172-4.852-4.852
		s2.172-4.852,4.852-4.852C675.739,110.473,677.912,112.645,677.912,115.325z"/>
	<path style="fill:#4E69FF;" d="M369.585,51.74c0,2.68-2.172,4.852-4.852,4.852s-4.852-2.172-4.852-4.852s2.172-4.852,4.852-4.852
		S369.585,49.061,369.585,51.74z"/>
	<path style="fill:#4E69FF;" d="M65.119,143.372c0,3.249-2.634,5.883-5.883,5.883c-3.249,0-5.883-2.634-5.883-5.883
		c0-3.249,2.634-5.883,5.883-5.883C62.485,137.489,65.119,140.123,65.119,143.372z"/>
	<path style="fill:#1B1B25;" d="M106.383,88.27c0,1.22-0.989,2.209-2.209,2.209c-1.22,0-2.209-0.989-2.209-2.209
		c0-1.22,0.989-2.209,2.209-2.209C105.394,86.061,106.383,87.05,106.383,88.27z"/>
	<path style="fill:#FFB54A;" d="M656.506,89.444c-0.421,1.971-2.359,3.227-4.33,2.806s-3.227-2.359-2.806-4.33
		c0.421-1.971,2.359-3.227,4.33-2.806C655.67,85.535,656.926,87.474,656.506,89.444z"/>
	<path style="fill:#FFB54A;" d="M128.063,444.723c-0.421,1.971-2.36,3.227-4.33,2.806c-1.971-0.421-3.227-2.359-2.806-4.33
		c0.421-1.971,2.359-3.227,4.33-2.806C127.228,440.814,128.484,442.752,128.063,444.723z"/>
	<g>
		<g>
			<g style="opacity:0.68;">
				<path style="opacity:0.47;fill:#9FBFFF;" d="M79.087,221.087c1.398-28.293,13.586-57.183,36.155-78.535
					c35.167-33.27,90.379-44.016,139.491-39.24c20.571,2,41.092,6.355,61.91,3.595c30.363-4.025,56.357-22.34,83.484-36.177
					c36.926-18.835,79.778-30.142,120.325-24.83c45.973,6.024,84.923,35.637,91.508,77.225c2.984,18.844-15.833,53.268-8.444,70.895
					c7.495,17.878,58.286,71.22,59.265,113.711c0.975,42.333-9.399,56.043-23.911,78.321l0,0
					c-43.35,42.738-103.536,63.859-164.087,57.583L337.4,408.147c-54.341-14.038-111.155-15.596-166.184-4.557h0
					c-33.815,6.784-62.472-25.427-51.654-58.175c0.096-0.289,0.193-0.58,0.292-0.871c7.927-23.303-17.728-40.856-28.366-61.631
					C82.021,264.423,78.062,241.81,79.087,221.087z"/>
			</g>
			<path style="opacity:0.41;fill:#9FBFFF;" d="M703.029,209.582c7.819-17.452,0.009-37.939-17.443-45.757
				c-17.453-7.819-50.065-5.441-57.883,12.011c-7.819,17.452,19.103,30.642,30.607,45.919
				C674.354,243.061,695.21,227.035,703.029,209.582z"/>
			<path style="opacity:0.41;fill:#9FBFFF;" d="M98.013,362.725c11.424-13.721,11.453-32.531,0.063-42.014
				c-11.389-9.483-37.796-12.636-49.221,1.085s5.804,29.317,10.257,44.248C65.324,386.868,86.589,376.446,98.013,362.725z"/>
		</g>
		<g style="opacity:0.43;">
			<g>
				<g>
					<path style="fill:#9FBFFF;" d="M150.279,398.215c-4.234-24.858,0.665-45.901,1.418-70.21
						c0.712-23.015-8.41-41.876-14.037-63.475c-5.009-19.223-4.79-41.296-0.717-60.646c5.561-26.419,20.196-51.365,42.302-67.245
						c34.446-24.743,82.08-24.462,122.223-10.693c16.814,5.767,33.221,13.745,50.981,15.07
						c38.848,2.897,77.121-22.494,115.756-26.886c29.243-3.324,59.979,2.361,84.417,18.761c24.438,16.4,41.793,44.065,42.811,73.478
						c0.706,20.382-6.093,40.906-2.309,60.946c3.192,16.908,13.572,31.518,19.267,47.754c7.327,20.892,6.511,44.524-2.242,64.861
						c-8.752,20.336-25.353,37.175-45.563,46.216c-21.283,9.521-45.463,10.355-68.681,8.223
						c-32.824-3.014-64.286-9.382-97.427-8.286c-35.472,1.173-70.785,6.738-104.875,16.624
						C213.45,465.95,157.939,443.182,150.279,398.215z"/>
				</g>
			</g>
		</g>
	</g>
	<path style="opacity:0.41;fill:#9FBFFF;" d="M345.434,70.675c0.916,11.686-9.968,22.071-24.311,23.195
		c-14.342,1.124-36.677-6.656-37.593-18.342c-0.916-11.686,21.505-14.077,33.621-20.707
		C334.047,45.575,344.517,58.989,345.434,70.675z"/>
</g>
<g id="OBJECTS">
	<g>
		<g>
			<g>
				<g>
					<g>
						<path style="fill:#1B1B25;" d="M244.94,429.696l116.148-22.977c9.924-1.963,16.333-11.823,14.315-22.023l-49.013-247.764
							c-2.018-10.2-11.698-16.877-21.622-14.914L188.62,144.994c-9.924,1.963-16.333,11.823-14.315,22.023l49.013,247.764
							C225.336,424.982,235.016,431.659,244.94,429.696z"/>
						<path style="fill:#292930;" d="M241.888,414.352l116.148-22.977c9.924-1.963,16.359-11.691,14.374-21.727l-48.226-243.787
							c-1.985-10.036-11.64-16.581-21.564-14.618L186.472,134.22c-9.924,1.963-16.359,11.691-14.374,21.727l48.226,243.787
							C222.31,409.77,231.964,416.315,241.888,414.352z"/>
					</g>
				</g>
			</g>
			
				<ellipse transform="matrix(0.324 -0.9461 0.9461 0.324 -162.4044 539.1129)" style="fill:none;stroke:#FFFFFF;stroke-miterlimit:10;" cx="296.042" cy="383.199" rx="12.323" ry="12.323"/>
			<path style="fill:none;stroke:#FFFFFF;stroke-miterlimit:10;" d="M262.879,137.54l-31.631,6.292
				c-1.051,0.209-2.074-0.474-2.283-1.525l-0.046-0.232c-0.209-1.051,0.474-2.073,1.525-2.283l31.631-6.292
				c1.051-0.209,2.073,0.474,2.283,1.525l0.046,0.232C264.613,136.309,263.93,137.331,262.879,137.54z"/>
		</g>
		<g>
			<path style="fill:#FFFFFF;" d="M225.997,370.115l129.82-25.711c1.679-0.332,2.827-1.682,2.564-3.014l-40.227-203.646
				c-0.263-1.332-1.838-2.143-3.517-1.81l-129.82,25.711c-1.679,0.333-2.827,1.682-2.564,3.014l40.227,203.646
				C222.744,369.637,224.318,370.447,225.997,370.115z"/>
			<g>
				<g>
					<path style="fill:#CAC9CA;" d="M313.44,144.295l-12.838,2.554c-0.207,0.041-0.408-0.093-0.45-0.3l-0.232-1.164
						c-0.041-0.207,0.093-0.408,0.3-0.45l12.838-2.554c0.207-0.041,0.408,0.093,0.45,0.3l0.232,1.164
						C313.782,144.052,313.647,144.254,313.44,144.295z"/>
					<path style="fill:#CAC9CA;" d="M314.012,147.172l-12.838,2.554c-0.207,0.041-0.408-0.093-0.45-0.3l-0.232-1.164
						c-0.041-0.207,0.093-0.408,0.3-0.45l12.838-2.554c0.207-0.041,0.408,0.093,0.45,0.3l0.232,1.164
						C314.354,146.929,314.219,147.13,314.012,147.172z"/>
					<path style="fill:#CAC9CA;" d="M314.633,150.293l-12.838,2.554c-0.207,0.041-0.408-0.093-0.45-0.3l-0.232-1.164
						c-0.041-0.207,0.093-0.408,0.3-0.45l12.838-2.554c0.207-0.041,0.408,0.093,0.45,0.3l0.232,1.164
						C314.975,150.051,314.84,150.252,314.633,150.293z"/>
				</g>
				<g>
					<path style="fill:#FFB54A;" d="M208.291,171.396c0.979,4.92-2.216,9.701-7.136,10.68c-4.92,0.979-9.701-2.216-10.68-7.136
						c-0.979-4.919,2.216-9.701,7.136-10.679C202.531,163.282,207.313,166.477,208.291,171.396z"/>
					<path style="fill:#FFFFFF;" d="M203.837,172.282c0.489,2.46-1.108,4.85-3.568,5.34c-2.46,0.489-4.85-1.108-5.34-3.568
						c-0.489-2.46,1.108-4.85,3.568-5.34C200.957,168.225,203.348,169.822,203.837,172.282z"/>
				</g>
			</g>
		</g>
		<g>
			<defs>
				<polygon id="SVGID_1_" points="358.798,343.814 223.096,370.808 181.614,162.281 318.483,135.055 				"/>
			</defs>
			<clipPath id="SVGID_00000052791367287908412380000005228371464025146796_">
				<use xlink:href="#SVGID_1_"  style="overflow:visible;"/>
			</clipPath>
			<g style="clip-path:url(#SVGID_00000052791367287908412380000005228371464025146796_);">
				<g>
					<path style="fill:#F13C45;" d="M217.634,253.232c0.602-4.02,4.457-11.977,6.469-15.186c5.123-8.174,8.493-17.327,8.893-26.973
						l0.054-1.31c0.272-6.564,2.486-12.58,6.057-17.53c1.987-2.754,4.017-5.298,6.66-7.468c1.299-1.066,2.681-2.031,4.13-2.881
						c0.461-0.271,1.096-0.386,1.186-0.965c0.093-0.6-0.737-1.672-0.976-2.207c-1.153-2.579-0.63-5.391,0.492-7.88
						c1.754-3.892,4.824-6.303,6.856-5.387c1.118,0.504,1.686,1.911,1.682,3.721c1.373-0.382,2.847-0.649,4.395-0.764
						c7.78-0.578,14.369,2.762,14.718,7.459c0.057,0.766-0.071,1.518-0.333,2.247c0.113,0.04,0.171,0.084,0.144,0.136
						c13.505,3.327,23.8,15.232,24.457,29.876l0.059,1.31c0.433,9.645,3.834,18.786,8.985,26.943
						c2.023,3.202,5.905,11.146,6.521,15.164c6.4,41.731-30.342,43.371-42.761,43.928c-1.661,0.074-3.285-0.039-4.857-0.312
						c-3.027,1.329-6.393,2.009-9.919,1.863C248.123,296.499,211.377,294.984,217.634,253.232z"/>
					<g>
						<g>
							<path style="fill:#FEC29E;" d="M295.371,212.509l-4.621,0.304c-4.406,0.29-8.27-2.325-9.37-6.067
								c-0.106-0.361-2.531-8.659-4.092-13.999l0.061,0.921c0.798,12.124-8.384,22.599-20.508,23.397l-8.004,0.527l0.128,1.38
								l-0.55,0.051c-4.8,0.446-8.361,4.739-7.915,9.538c0.447,4.8,4.739,8.361,9.538,7.915l0.572-0.053
								c0.678,5.124,3.032,9.648,6.457,13.061c-0.066,0.736-0.078,1.485-0.009,2.245l1.64,17.99
								c0.624,6.85,6.74,11.944,13.589,11.319c6.85-0.624,11.944-6.74,11.319-13.59l-1.217-13.351
								c4.386-1.979,7.989-5.296,10.34-9.391c3.105-4.262,4.739-9.623,4.212-15.287L295.371,212.509z"/>
						</g>
						<g>
							<path style="opacity:0.32;fill:#FF887C;" d="M276.667,253.855L276.667,253.855c-11.575,1.077-21.914-6.835-24.108-18.001
								c-0.146-0.744-1.993,0.277-1.954,0.57c0.706,5.336,3.237,10.016,6.895,13.474c0.7,5.707,5.31,10.395,11.256,10.946
								c4.92,0.456,9.453-2.049,11.858-6.03c5.128-1.805,9.34-5.391,12.009-9.947C288.955,249.813,283.282,253.24,276.667,253.855z"
								/>
							<polyline style="fill:none;stroke:#FB8E77;stroke-linecap:round;stroke-linejoin:round;stroke-miterlimit:10;" points="
								246.318,223.914 249.788,227.855 246.483,229.963 							"/>
							<path style="fill:#FFFFFF;" d="M250.673,235.145c0.169,1.851-1.195,3.488-3.046,3.657c-1.851,0.169-3.488-1.195-3.657-3.046
								c-0.169-1.851,1.195-3.488,3.046-3.657C248.867,231.93,250.504,233.294,250.673,235.145z"/>
						</g>
						<g>
							<g>
								<path style="fill:#1B1B25;" d="M270.155,225.616L270.155,225.616c-0.554,0.052-1.05-0.36-1.102-0.914l-0.114-1.223
									c-0.051-0.554,0.36-1.05,0.914-1.102l0,0c0.554-0.052,1.05,0.36,1.102,0.914l0.114,1.223
									C271.121,225.069,270.71,225.564,270.155,225.616z"/>
								<path style="opacity:0.32;fill:#FF887C;" d="M270.182,231.471l-4.483,0.088c-0.889,0.018-1.631-0.696-1.649-1.585l0,0
									c-0.017-0.889,0.696-1.631,1.585-1.649l4.483-0.088c0.889-0.018,1.631,0.696,1.649,1.585l0,0
									C271.785,230.711,271.071,231.453,270.182,231.471z"/>
								<path style="opacity:0.32;fill:#FF887C;" d="M293.365,229.654l-4.483,0.088c-0.889,0.018-1.631-0.696-1.649-1.585l0,0
									c-0.018-0.889,0.696-1.631,1.585-1.649l4.483-0.088c0.889-0.018,1.631,0.696,1.649,1.585l0,0
									C294.967,228.895,294.254,229.637,293.365,229.654z"/>
								<path style="fill:#1B1B25;" d="M288.013,224.482L288.013,224.482c-0.554,0.051-1.05-0.36-1.102-0.914l-0.114-1.223
									c-0.052-0.554,0.36-1.05,0.914-1.101l0,0c0.554-0.052,1.05,0.36,1.102,0.914l0.114,1.223
									C288.979,223.934,288.568,224.43,288.013,224.482z"/>
								<path style="fill:none;stroke:#FFFFFF;stroke-miterlimit:10;" d="M276.066,223.444c0.386,4.24-2.737,7.99-6.977,8.377
									c-4.24,0.386-7.99-2.737-8.377-6.977c-0.387-4.24,2.737-7.99,6.977-8.377C271.93,216.081,275.68,219.204,276.066,223.444z"
									/>
								<path style="fill:none;stroke:#FFFFFF;stroke-miterlimit:10;" d="M296.998,221.536c0.387,4.24-2.737,7.99-6.977,8.377
									c-4.24,0.387-7.99-2.737-8.377-6.977c-0.386-4.24,2.737-7.99,6.977-8.377C292.861,214.173,296.611,217.296,296.998,221.536z
									"/>
								<path style="fill:none;stroke:#FB8E77;stroke-linecap:round;stroke-miterlimit:10;" d="M274.711,242.665
									c0,0,1.714-1.657,3.781-0.594"/>
								<path style="fill:none;stroke:#FB8E77;stroke-width:0.75;stroke-linecap:round;stroke-miterlimit:10;" d="M268.583,226.265
									c0,0,1.326-0.995,3.213-0.18"/>
								<path style="fill:none;stroke:#FB8E77;stroke-width:0.75;stroke-linecap:round;stroke-miterlimit:10;" d="M286.356,225.135
									c0,0,1.326-0.995,3.213-0.18"/>
								<path style="fill:none;stroke:#FB8E77;stroke-linecap:round;stroke-miterlimit:10;" d="M277.397,217.398l0.845,4.949
									c0.239,1.397,1.731,2.307,3.334,2.033c0,0,0.325,0.046,0.46,0.116c0.777,0.407,0.835,1.872,0.835,1.872
									c0.276,1.613-1.418,3.138-3.268,3.454l-2.655,0.453"/>
								<path style="fill:none;stroke:#FFFFFF;stroke-miterlimit:10;" d="M275.945,222.616c0,0,2.03-2.563,5.668-0.517"/>
								<line style="fill:none;stroke:#FFFFFF;stroke-miterlimit:10;" x1="248.965" y1="218.972" x2="260.897" y2="222.346"/>
								<g>
									<g>
										<g>
											<path style="fill:#F13C45;" d="M264.913,220.652c0.544,0.035,1.134-0.243,1.719-0.478
												c0.584-0.249,1.177-0.485,1.699-0.672c0.523-0.188,1.132-0.382,1.741-0.56c0.602-0.19,1.236-0.351,1.628-0.721
												c0.381-0.351,0.369-0.96-0.402-1.438c-0.733-0.472-2.292-0.712-4.025-0.096c-1.728,0.624-2.759,1.792-3.005,2.615
												C263.997,220.152,264.39,220.625,264.913,220.652z"/>
										</g>
										<g>
											<path style="fill:#F13C45;" d="M291.053,217.695c-0.377,0.16-0.863,0.11-1.335,0.088
												c-0.475-0.032-0.953-0.051-1.369-0.054c-0.417-0.003-0.895,0.01-1.371,0.036c-0.473,0.015-0.962,0.058-1.331-0.106
												c-0.357-0.154-0.499-0.588-0.072-1.118c0.401-0.516,1.445-1.073,2.824-1.067c1.377,0.012,2.397,0.583,2.775,1.104
												C291.577,217.115,291.416,217.547,291.053,217.695z"/>
										</g>
									</g>
								</g>
							</g>
							<path style="fill:#FFFFFF;" d="M276.664,240.237l-3.589-0.298c-2.515-0.208-4.384-2.416-4.175-4.93l0.209-2.514l9.681,0.803
								l-0.458,5.528C278.261,239.675,277.514,240.307,276.664,240.237z"/>
						</g>
					</g>
				</g>
				<g>
					<g>
						<g>
							<g>
								<path style="fill:#4E69FF;" d="M332,321.932c2.526-5.654,2.033-12.201-1.312-17.412l-14.923-23.251
									c-3.465-17.417-13.684-21.039-31.1-17.574l0.034,0.484c0.901,12.824-15.487,18.9-23.164,8.588l-2.899-3.894l-11.895,2.366
									c-8.519,1.695-14.704,8.493-16.057,16.581l-0.023-0.001l-7.681,49.079l0.743-0.056l15.13-1.131l10.051,50.529l84.332-16.776
									l-4.66-39.868L332,321.932z"/>
								<path style="fill:none;stroke:#FB8E77;stroke-linecap:round;stroke-miterlimit:10;" d="M346.116,359.482"/>
							</g>
							<g>
								<path style="fill:#FEC29E;" d="M223.722,336.841l-0.956,32.545c-0.29,9.874,7.479,18.114,17.353,18.404
									c8.564,0.252,15.702-6.506,15.919-15.071l0.973-38.367L223.722,336.841z"/>
								<path style="opacity:0.17;fill:#FF887C;" d="M257.011,334.352c0.209-3.684-0.321,0.154-0.321,0.154
									s-23.842,1.768-33.066,2.452c-0.499,5.704,0.096,11.218-0.402,16.922L257.011,334.352z"/>
							</g>
						</g>
					</g>
					<g>
						<path style="opacity:0.32;fill:#FF887C;" d="M299.764,260.228c-0.902-5.351-5.926-4.61-5.926-4.61
							c-1.063-3.132-1.088-9.813-2.082-12.968c-0.104-0.329-0.223-0.678-0.496-0.889c-0.304-0.236-0.727-0.242-1.107-0.184
							c-2.213,0.338-2.713,2.413-2.757,4.511c-0.014,0.686-0.199,1.09-0.088,1.765l-5.515-6.882
							c-0.982-1.188-3.716-1.595-4.884-0.629c-0.584,0.483-0.914,1.164-0.975,1.874c-0.022,0.255,0.003,0.513,0.052,0.767
							c-1.395-0.093-2.809,0.563-3.577,1.882c-2.913,5.007-0.021,14.098,2.482,20.076c1.518,3.624,3.94,6.793,7.019,9.235
							l7.677,3.215l13.038-10.753C302.625,266.637,300.473,264.428,299.764,260.228z"/>
						<path style="fill:#FEC29E;" d="M350.083,305.433l-46.024-36.619c0,0-2.153-2.208-2.861-6.409
							c-0.902-5.351-5.324-8.031-5.324-8.031c-1.063-3.132-1.691-6.393-2.684-9.547c-0.104-0.329-0.223-0.677-0.496-0.889
							c-0.304-0.235-0.727-0.242-1.107-0.184c-2.213,0.338-3.44,2.304-3.484,4.401c-0.014,0.686,0.052,1.367,0.162,2.041
							l-6.014-7.275c-0.982-1.188-2.741-1.369-3.908-0.404c-0.584,0.483-0.914,1.165-0.975,1.874
							c-0.022,0.255,0.003,0.513,0.052,0.767c-1.395-0.093-2.809,0.563-3.576,1.882c-1.803,3.1-1.18,7.437,0.241,11.56
							c2.361,6.848,6.958,12.704,12.859,16.904l3.347,2.383l0,0l36.061,49.026c5.457,7.255,15.832,8.563,22.919,2.888
							C356.957,323.648,357.343,312.087,350.083,305.433z"/>
					</g>
				</g>
			</g>
		</g>
		<g>
			<g>
				
					<ellipse transform="matrix(0.8967 -0.4426 0.4426 0.8967 -121.3447 149.8572)" style="fill:#FFFFFF;stroke:#CAC9CA;stroke-width:2;stroke-miterlimit:10;" cx="260.429" cy="334.935" rx="18.293" ry="18.293"/>
				<path style="fill:#FA445C;" d="M268.54,339.931l-0.392,0.586c-0.34,0.508-1.033,0.646-1.541,0.306l-13.983-9.343
					c-0.508-0.339-0.646-1.033-0.307-1.541l0.392-0.586c0.34-0.508,1.033-0.646,1.541-0.306l13.983,9.343
					C268.741,338.729,268.879,339.423,268.54,339.931z"/>
				<path style="fill:#FA445C;" d="M255.433,343.047l-0.586-0.392c-0.508-0.34-0.646-1.033-0.307-1.541l9.343-13.983
					c0.34-0.508,1.033-0.646,1.541-0.306l0.586,0.392c0.508,0.34,0.646,1.033,0.307,1.541l-9.343,13.983
					C256.635,343.248,255.941,343.386,255.433,343.047z"/>
			</g>
			<g>
				
					<ellipse transform="matrix(0.2586 -0.966 0.966 0.2586 -83.5084 541.0519)" style="fill:#FFFFFF;stroke:#CAC9CA;stroke-width:2;stroke-miterlimit:10;" cx="310.728" cy="324.93" rx="18.293" ry="18.293"/>
				<path style="fill:#4E69FF;" d="M320.874,320.713c-0.115-0.672-0.369-1.333-0.79-1.96c-1.203-1.79-3.421-2.705-5.536-2.284
					c-2.275,0.453-3.912,2.278-4.26,4.442c-1.149-1.866-3.36-2.926-5.635-2.474c-2.77,0.551-4.535,3.049-4.172,5.844
					c0.344,2.647,2.562,4.362,4.701,5.644c2.594,1.555,5.199,3.128,7.867,4.553c0.215,0.115,4.801-6.236,5.241-6.836
					C319.744,325.658,321.315,323.305,320.874,320.713z"/>
			</g>
		</g>
	</g>
	<g>
		<g>
			<g>
				<g>
					<g>
						<path style="fill:#1B1B25;" d="M532.373,400.961l-116.285-22.274c-9.936-1.903-16.404-11.724-14.448-21.936l47.513-248.056
							c1.956-10.212,11.596-16.948,21.531-15.045l116.285,22.274c9.935,1.903,16.404,11.724,14.448,21.937l-47.513,248.056
							C551.948,396.128,542.308,402.864,532.373,400.961z"/>
						<path style="fill:#292930;" d="M535.332,385.598l-116.285-22.274c-9.936-1.903-16.43-11.591-14.505-21.64l46.751-244.074
							c1.925-10.048,11.539-16.651,21.475-14.748l116.285,22.274c9.936,1.903,16.43,11.591,14.505,21.64L556.807,370.85
							C554.882,380.899,545.268,387.501,535.332,385.598z"/>
					</g>
				</g>
			</g>
			<path style="fill:none;stroke:#FFFFFF;stroke-miterlimit:10;" d="M468.889,352.443c-1.287,6.683,3.087,13.145,9.77,14.432
				c6.683,1.288,13.145-3.087,14.432-9.77c1.287-6.683-3.087-13.145-9.77-14.432C476.638,341.385,470.177,345.76,468.889,352.443z"
				/>
			<path style="fill:none;stroke:#FFFFFF;stroke-miterlimit:10;" d="M512.667,108.919l31.668,6.101
				c1.053,0.203,2.071-0.486,2.273-1.539l0.045-0.232c0.203-1.053-0.486-2.071-1.539-2.273l-31.668-6.101
				c-1.053-0.203-2.07,0.486-2.273,1.539l-0.045,0.232C510.925,107.698,511.614,108.716,512.667,108.919z"/>
		</g>
		<g>
			<path style="fill:#FFFFFF;" d="M550.955,341.266l-129.973-24.925c-1.681-0.322-2.837-1.665-2.582-2.999l38.994-203.886
				c0.255-1.334,1.825-2.154,3.506-1.831l129.973,24.925c1.681,0.322,2.837,1.665,2.582,2.999l-38.995,203.886
				C554.206,340.769,552.636,341.589,550.955,341.266z"/>
			<g>
				<path style="fill:#CAC9CA;" d="M586.067,139.852l-12.853-2.476c-0.207-0.04-0.343-0.24-0.303-0.448l0.225-1.165
					c0.04-0.207,0.24-0.343,0.448-0.303l12.853,2.476c0.207,0.04,0.343,0.24,0.303,0.448l-0.224,1.165
					C586.475,139.756,586.274,139.892,586.067,139.852z"/>
				<path style="fill:#CAC9CA;" d="M585.512,142.732l-12.853-2.476c-0.207-0.04-0.343-0.24-0.303-0.448l0.224-1.165
					c0.04-0.207,0.24-0.343,0.448-0.303l12.853,2.476c0.207,0.04,0.343,0.24,0.303,0.448l-0.224,1.165
					C585.92,142.636,585.719,142.772,585.512,142.732z"/>
				<path style="fill:#CAC9CA;" d="M584.91,145.857l-12.853-2.476c-0.207-0.04-0.343-0.24-0.303-0.448l0.224-1.165
					c0.04-0.207,0.24-0.343,0.448-0.303l12.853,2.476c0.207,0.04,0.343,0.24,0.303,0.448l-0.224,1.165
					C585.318,145.761,585.117,145.897,584.91,145.857z"/>
			</g>
			<g>
				<path style="fill:#F13C45;" d="M478.461,125.299c-0.949,4.925-5.711,8.149-10.636,7.2c-4.925-0.949-8.149-5.711-7.2-10.636
					c0.949-4.925,5.711-8.149,10.636-7.2C476.187,115.612,479.41,120.374,478.461,125.299z"/>
				<path style="fill:#FFFFFF;" d="M474.002,124.44c-0.474,2.463-2.855,4.075-5.318,3.6c-2.463-0.474-4.074-2.855-3.6-5.318
					c0.475-2.463,2.855-4.075,5.318-3.6C472.865,119.597,474.477,121.978,474.002,124.44z"/>
			</g>
		</g>
		<g>
			<defs>
				
					<rect id="SVGID_00000074416439600610577290000006827484830569478825_" x="370.624" y="120.037" transform="matrix(0.1892 -0.9819 0.9819 0.1892 171.8022 645.7796)" width="212.613" height="197.649"/>
			</defs>
			<clipPath id="SVGID_00000033351388458848274650000007585971038154140320_">
				<use xlink:href="#SVGID_00000074416439600610577290000006827484830569478825_"  style="overflow:visible;"/>
			</clipPath>
			<g style="clip-path:url(#SVGID_00000033351388458848274650000007585971038154140320_);">
				<g>
					<g>
						<path style="fill:#FEC29E;" d="M524.72,256.049l2.661,84.731c0.282,8.991,7.818,16.039,16.808,15.721l0,0
							c10.364-0.367,18.469-9.067,18.101-19.431l-1.426-40.224L524.72,256.049z"/>
						<path style="opacity:0.17;fill:#FF887C;" d="M525.349,300.592C525.155,296.604,525.349,300.592,525.349,300.592
							s25.725,2.131,35.677,2.956c0.489,6.178,0.504,12.285,0.992,18.463L525.349,300.592z"/>
					</g>
					<path style="fill:#FFB54A;" d="M561.859,302.961l-7.745-47.599c-0.062-10.129-7.918-19.312-19.083-21.463l-44.841-8.638
						c-2.561-0.493-5.106-0.725-7.606-0.721l-41.48-7.827l-6.592,34.217l12.708,2.448l-25.117,86.637l112.898,22.412l11.008-60.554
						L561.859,302.961z"/>
					<g>
						<path style="fill:#1B1B25;" d="M528.217,143.776c0,0-6.454-6.579-16.463-13.297c-11.836-7.945-31.073-6.13-31.95,13.823
							c-4.322,4.097-7.102,11.594-1.34,25.269l-1.199,5.465c-1.115,5.085,1.98,10.085,6.915,11.167l36.912,8.096
							c4.934,1.082,9.838-2.163,10.954-7.248l2.092-9.536C557.22,145.271,528.217,143.776,528.217,143.776z"/>
						<path style="fill:none;stroke:#FFFFFF;stroke-linecap:round;stroke-miterlimit:10;" d="M530.823,148.882
							c0,0,10.118,4.471,6.588,14.824"/>
						<g>
							<g>
								<path style="fill:#FEC29E;" d="M532.667,179.522l-8.593,1.961c0,0,5.01-8.711-1.682-19.641c0,0-28.834,7.256-39.063-4.715
									l-7.446,33.947c-0.978,4.459-0.193,8.884,1.865,12.581c1.715,4.651,5.29,8.514,10.033,10.499l-2.662,13.817
									c-1.409,7.316,3.593,14.487,11.117,15.937l4.315,0.831c7.523,1.449,14.832-3.35,16.242-10.666l3.876-20.121
									c2.761-2.463,4.812-5.773,5.665-9.664l1.293-5.893l0.859,0.188c5.1,1.119,10.188-2.139,11.306-7.239l0.114-0.517
									C541.024,185.729,537.767,180.641,532.667,179.522z"/>
							</g>
							<path style="opacity:0.32;fill:#FF887C;" d="M525.635,197.604l-0.917,4.182c-2.127,9.699-11.715,15.837-21.413,13.709
								l-13.712-3.008c-5.24-1.15-9.425-4.486-11.844-8.832c2.077,5.632,6.877,10.126,13.175,11.507l0.547,0.12
								c2.052,4.609,6.596,7.912,11.952,8.077l4.325,0.134c6.389,0.197,11.908-4.127,13.495-10.061
								c2.472-2.402,4.297-5.525,5.09-9.143l1.293-5.893L525.635,197.604z"/>
							<polyline style="fill:none;stroke:#FB8E77;stroke-linecap:round;stroke-linejoin:round;stroke-miterlimit:10;" points="
								534.057,185.157 529.684,189.036 533.047,191.817 							"/>
						</g>
						<g>
							<g>
								<g>
									<g>
										<path style="fill:#1B1B25;" d="M511.753,174.987c-0.666-0.016-1.353-0.415-2.039-0.763
											c-0.684-0.365-1.38-0.714-1.995-0.997c-0.616-0.283-1.335-0.584-2.058-0.866c-0.711-0.294-1.466-0.558-1.903-1.049
											c-0.426-0.467-0.347-1.206,0.642-1.706c0.941-0.497,2.862-0.623,4.904,0.309c2.035,0.941,3.165,2.471,3.377,3.497
											C512.919,174.477,512.391,175.01,511.753,174.987z"/>
									</g>
									<g>
										<path style="fill:#1B1B25;" d="M482.585,173.245c0.564,0.334,1.355,0.402,2.117,0.506c0.769,0.091,1.54,0.199,2.207,0.313
											c0.669,0.115,1.432,0.27,2.188,0.441c0.754,0.156,1.527,0.357,2.159,0.228c0.61-0.117,0.946-0.693,0.394-1.568
											c-0.514-0.848-2.048-1.937-4.26-2.321c-2.211-0.374-3.986,0.147-4.723,0.78C481.889,172.27,482.04,172.93,482.585,173.245
											z"/>
									</g>
								</g>
							</g>
							<path style="fill:#1B1B25;" d="M504.881,182.475l0.06,0.013c0.589,0.129,1.177-0.247,1.306-0.836l0.306-1.395
								c0.129-0.589-0.247-1.176-0.836-1.306l-0.06-0.013c-0.589-0.129-1.177,0.247-1.306,0.836l-0.306,1.395
								C503.916,181.758,504.292,182.346,504.881,182.475z"/>
							<path style="fill:none;stroke:#FB8E77;stroke-linecap:round;stroke-miterlimit:10;" d="M497.875,168.348l-1.719,8.921
								c-0.244,1.267-1.469,2.096-2.736,1.852l0,0c-0.96-0.185-1.888,0.443-2.073,1.404l-0.448,2.326
								c-0.196,1.017,0.47,2.001,1.487,2.197l5.687,1.096"/>
							<path style="fill:#1B1B25;" d="M485.888,178.783l0.06,0.013c0.589,0.129,1.177-0.247,1.306-0.836l0.306-1.395
								c0.129-0.589-0.247-1.177-0.836-1.306l-0.06-0.013c-0.589-0.129-1.176,0.247-1.306,0.836l-0.306,1.395
								C484.923,178.067,485.299,178.654,485.888,178.783z"/>
							<path style="opacity:0.17;fill:#FF887C;" d="M505.512,187.574l3.905,0.562c0.739,0.106,1.431-0.411,1.537-1.151l0.011-0.075
								c0.106-0.739-0.411-1.431-1.151-1.537l-3.905-0.562c-0.739-0.106-1.431,0.411-1.537,1.151l-0.011,0.075
								C504.255,186.776,504.773,187.468,505.512,187.574z"/>
							<path style="opacity:0.17;fill:#FF887C;" d="M479.791,182.705l3.905,0.562c0.739,0.106,1.431-0.411,1.537-1.151l0.011-0.075
								c0.106-0.739-0.411-1.431-1.151-1.537l-3.905-0.562c-0.739-0.106-1.431,0.411-1.537,1.151l-0.011,0.075
								C478.535,181.907,479.052,182.598,479.791,182.705z"/>
							<path style="fill:none;stroke:#FB8E77;stroke-linecap:round;stroke-miterlimit:10;" d="M494.866,202.796
								c0,0-2.123-1.593-4.259-0.132"/>
							<path style="fill:#FFFFFF;" d="M493.977,190.611l14.585-1.031l-1.703,3.548c-1.09,2.272-4.137,3.745-7.528,3.641l0,0
								c-2.637-0.081-4.807-1.566-5.03-3.443L493.977,190.611z"/>
						</g>
					</g>
					<g>
						<g>
							<polygon style="fill:none;" points="466.377,164.055 466.379,164.053 466.377,164.055 							"/>
							<path style="opacity:0.17;fill:#FF887C;" d="M405.204,245.263c-0.262-0.059-0.459-0.103-0.622-0.139
								C404.778,245.168,405,245.218,405.204,245.263z"/>
							<path style="opacity:0.17;fill:#FF887C;" d="M404.531,245.112C403.83,244.955,404.069,245.009,404.531,245.112
								L404.531,245.112z"/>
							<path style="opacity:0.17;fill:#FF887C;" d="M404.583,245.124c-0.018-0.004-0.034-0.008-0.051-0.012
								C404.548,245.116,404.564,245.12,404.583,245.124z"/>
							<path style="opacity:0.17;fill:#FF887C;" d="M405.359,245.298c-0.05-0.011-0.1-0.022-0.154-0.035
								C405.25,245.274,405.31,245.287,405.359,245.298z"/>
							<path style="opacity:0.17;fill:#FF887C;" d="M405.811,245.4c-0.172-0.038-0.31-0.07-0.453-0.102
								C405.615,245.355,405.811,245.4,405.811,245.4z"/>
							<path style="fill:#FEC29E;" d="M466.377,164.055L466.377,164.055l0.002-0.003
								C466.379,164.053,466.378,164.054,466.377,164.055z"/>
						</g>
					</g>
					<g>
						<path style="fill:#FEC29E;" d="M480.776,145.328L480.776,145.328c-0.614-0.62-1.436-0.923-2.266-0.91
							c-0.83,0.012-1.667,0.339-2.311,0.977l-8.929,8.843c-7.567-11.808-19.901,0.831-19.901,0.831l-7.11,7.585l-54.299,48.006
							c-3.112,2.812-5.024,6.436-5.756,10.251c-0.031,0.14-0.075,0.273-0.102,0.414v0c-0.039,0.201-0.053,0.401-0.085,0.602
							c-0.002,0.013-0.004,0.026-0.005,0.039c-1.567,9.952,5.008,19.43,14.977,21.35l39.522,7.614l6.592-34.217l-12.385-2.438
							l0.029-0.039l23.744-32.421l-0.063-0.101c0.753-0.738,2.984-2.647,6.763-3.639c6.045-1.588,8.663-6.936,8.663-6.936
							c3.483-1.542,7.159-2.6,10.674-4.065c0.367-0.153,0.754-0.326,0.968-0.661c0.239-0.373,0.202-0.858,0.096-1.289
							c-0.617-2.504-2.998-3.708-5.409-3.542c-1.412,0.097-2.78,0.471-4.108,0.946c-0.63,0.226-2.684,0.729-3.453,1.282
							l14.04-13.906C481.954,148.627,482.004,146.568,480.776,145.328z"/>
						<path style="opacity:0.17;fill:#FF887C;" d="M405.811,245.4l30.506-29.63c-5.492-1.058-3.533-0.745-7.569-1.535l-6.553,8.948
							C415.68,233.278,405.811,245.4,405.811,245.4z"/>
						
							<line style="fill:none;stroke:#FB8E77;stroke-linecap:round;stroke-miterlimit:10;" x1="468.077" y1="162.371" x2="463.88" y2="166.645"/>
					</g>
				</g>
			</g>
		</g>
		<g>
			<g>
				<circle style="fill:#FFFFFF;stroke:#CAC9CA;stroke-width:2;stroke-miterlimit:10;" cx="465.952" cy="296.595" r="18.293"/>
				<path style="fill:#FA445C;" d="M471.581,304.28l-0.584,0.395c-0.506,0.343-1.2,0.209-1.543-0.297l-9.427-13.926
					c-0.342-0.506-0.209-1.2,0.297-1.543l0.584-0.395c0.506-0.342,1.2-0.209,1.543,0.297l9.427,13.926
					C472.22,303.243,472.087,303.938,471.581,304.28z"/>
				<path style="fill:#FA445C;" d="M458.267,302.223l-0.395-0.584c-0.343-0.506-0.209-1.2,0.297-1.543l13.926-9.427
					c0.506-0.342,1.2-0.209,1.543,0.297l0.395,0.584c0.342,0.506,0.209,1.2-0.297,1.543l-13.926,9.427
					C459.304,302.863,458.609,302.729,458.267,302.223z"/>
			</g>
			<g>
				
					<ellipse transform="matrix(0.5087 -0.861 0.861 0.5087 -10.023 595.0288)" style="fill:#FFFFFF;stroke:#CAC9CA;stroke-width:2;stroke-miterlimit:10;" cx="516.311" cy="306.296" rx="18.293" ry="18.293"/>
				<path style="fill:#4E69FF;" d="M527.298,306.217c0.148-0.666,0.161-1.374,0.007-2.114c-0.439-2.112-2.148-3.795-4.266-4.203
					c-2.278-0.439-4.482,0.635-5.62,2.508c-0.361-2.162-2.008-3.977-4.286-4.416c-2.773-0.534-5.35,1.114-6.068,3.839
					c-0.68,2.581,0.728,5.007,2.225,7c1.816,2.419,3.636,4.858,5.57,7.183c0.156,0.187,6.798-3.965,7.433-4.355
					C524.387,310.37,526.73,308.784,527.298,306.217z"/>
			</g>
		</g>
	</g>
	<g>
		<g>
			<g>
				<g>
					<path style="fill:#4E69FF;" d="M162.721,234.695l-68.997,12.005c-7.096,1.235-11.848,7.988-10.614,15.085
						c1.235,7.096,7.988,11.848,15.085,10.613l56.862-9.893l12.135-2.111c7.096-1.235,11.848-7.988,10.613-15.085
						C176.571,238.212,169.817,233.46,162.721,234.695z"/>
					<g>
						
							<line style="fill:none;stroke:#FFFFFF;stroke-linecap:round;stroke-miterlimit:10;" x1="111.505" y1="261.105" x2="154.711" y2="253.588"/>
						
							<line style="fill:none;stroke:#FFFFFF;stroke-linecap:round;stroke-miterlimit:10;" x1="96.517" y1="256.086" x2="137.926" y2="248.882"/>
						
							<line style="fill:none;stroke:#FFFFFF;stroke-linecap:round;stroke-miterlimit:10;" x1="143.091" y1="247.983" x2="159.178" y2="245.184"/>
					</g>
				</g>
				<g>
					<path style="fill:#FFB54A;" d="M205.21,195.11l-94.804,16.347c-9.751,1.681-16.292,10.949-14.611,20.699
						c1.681,9.75,10.949,16.292,20.699,14.611l78.13-13.472l12.438,7.941l-1.689-9.795l5.925-1.022
						c9.751-1.681,16.292-10.948,14.611-20.699C224.228,199.97,214.96,193.429,205.21,195.11z"/>
					<g>
						
							<line style="fill:none;stroke:#FFFFFF;stroke-linecap:round;stroke-miterlimit:10;" x1="126.924" y1="217.826" x2="194.856" y2="206.113"/>
						
							<line style="fill:none;stroke:#FFFFFF;stroke-linecap:round;stroke-miterlimit:10;" x1="129.672" y1="233.766" x2="187.066" y2="223.87"/>
						
							<line style="fill:none;stroke:#FFFFFF;stroke-linecap:round;stroke-miterlimit:10;" x1="111.505" y1="229.211" x2="170.149" y2="219.099"/>
						
							<line style="fill:none;stroke:#FFFFFF;stroke-linecap:round;stroke-miterlimit:10;" x1="175.357" y1="218.201" x2="196.317" y2="214.587"/>
					</g>
				</g>
			</g>
			<g>
				<path style="fill:#4E69FF;" d="M192.01,107.71l-3.801-18.447c-1.88-9.127-10.803-15.001-19.93-13.121l-34.709,7.151
					c-9.127,1.881-15.001,10.803-13.121,19.93l3.801,18.447c1.88,9.127,10.803,15.001,19.93,13.121l3.638-0.75l15.923,10.483
					l10.483-15.923l4.665-0.961C188.016,125.76,193.89,116.837,192.01,107.71z"/>
				<path style="fill:#FFFFFF;" d="M178.429,96.596c-0.116-0.748-0.388-1.485-0.846-2.188c-1.306-2.006-3.754-3.055-6.107-2.622
					c-2.532,0.467-4.377,2.467-4.797,4.863c-1.246-2.089-3.683-3.3-6.215-2.834c-3.082,0.568-5.08,3.313-4.721,6.419
					c0.34,2.943,2.775,4.881,5.128,6.337c2.855,1.766,5.72,3.553,8.659,5.175c0.237,0.131,5.426-6.844,5.924-7.504
					C177.097,102.065,178.878,99.479,178.429,96.596z"/>
				<g>
					
						<text transform="matrix(0.9794 -0.2018 0.2018 0.9794 134.3751 115.765)" style="fill:#FFFFFF; font-family:'GothamBold'; font-size:19.3255px;">10</text>
				</g>
			</g>
			<g>
				<path style="fill:#F13C45;" d="M198.381,333.419l-3.605-18.486c-1.784-9.146-10.644-15.114-19.79-13.331l-34.783,6.784
					c-9.146,1.784-15.114,10.644-13.331,19.79l3.605,18.486c1.784,9.146,10.644,15.115,19.79,13.331l4.675-0.912l15.811,10.651
					l10.65-15.811l3.646-0.711C194.197,351.425,200.165,342.565,198.381,333.419z"/>
				<path style="fill:#FFFFFF;" d="M154.009,338.246c0.992,0.58,11.39,6.747,11.624,6.452c2.9-3.657,5.619-7.486,8.335-11.283
					c2.239-3.13,4.324-6.923,3.182-10.88c-1.205-4.178-5.241-6.629-9.5-5.705c-3.499,0.759-5.976,3.62-6.455,6.968
					c-1.823-2.849-5.262-4.426-8.762-3.668c-3.252,0.705-5.829,3.364-6.43,6.638c-0.211,1.147-0.164,2.239,0.087,3.261
					C147.061,333.969,150.732,336.332,154.009,338.246z"/>
			</g>
		</g>
		<g>
			<g>
				<path style="fill:#4E69FF;" d="M438.758,122.787l-0.343-18.831c-0.169-9.317-7.859-16.732-17.176-16.563l-35.433,0.644
					c-9.317,0.169-16.732,7.86-16.563,17.176l0.342,18.831c0.169,9.317,7.86,16.732,17.177,16.563l3.714-0.068l13.723,13.233
					l13.233-13.723l4.762-0.087C431.512,139.794,438.927,132.104,438.758,122.787z"/>
				<path style="fill:none;stroke:#FFFFFF;stroke-miterlimit:10;" d="M391.075,117.164c-0.986,2.228-3.592,3.235-5.82,2.249
					c-2.228-0.986-3.235-3.592-2.249-5.82c0.986-2.228,3.592-3.235,5.82-2.249S392.061,114.936,391.075,117.164z"/>
				<path style="fill:none;stroke:#FFFFFF;stroke-miterlimit:10;" d="M407.948,116.514c-0.986,2.228-3.592,3.235-5.82,2.249
					c-2.228-0.986-3.235-3.592-2.249-5.82c0.986-2.228,3.592-3.235,5.82-2.249C407.927,111.68,408.934,114.286,407.948,116.514z"/>
				<path style="fill:none;stroke:#FFFFFF;stroke-miterlimit:10;" d="M424.415,115.88c-0.986,2.228-3.592,3.235-5.82,2.249
					c-2.228-0.986-3.235-3.592-2.249-5.82c0.986-2.228,3.592-3.235,5.82-2.249C424.395,111.046,425.401,113.651,424.415,115.88z"/>
			</g>
			<g>
				
					<ellipse transform="matrix(0.87 -0.493 0.493 0.87 -48.6796 193.6933)" style="fill:#FFB54A;" cx="343.036" cy="189.177" rx="26.947" ry="26.947"/>
				<path style="fill:#1B1B25;" d="M334.29,182.981c-0.405,1.755-1.423-0.329-3.177-0.734c-1.755-0.405-3.583,1.021-3.177-0.734
					c0.405-1.755,2.157-2.849,3.911-2.443C333.601,179.475,334.695,181.226,334.29,182.981z"/>
				<path style="fill:#1B1B25;" d="M360.172,188.392c-0.405,1.755-1.423-0.329-3.177-0.734s-3.583,1.021-3.177-0.734
					c0.405-1.755,2.157-2.849,3.911-2.443C359.484,184.886,360.578,186.637,360.172,188.392z"/>
				<g>
					<path style="fill:#1B1B25;" d="M346.547,193.695c0.79,0.682,1.097,1.447,0.92,2.295c-0.163,0.782-0.618,1.353-1.364,1.713
						c-0.706,0.341-1.535,0.425-2.488,0.252c-0.677-0.123-1.334-0.382-1.903-0.769c-0.208-0.141-0.395-0.289-0.56-0.442
						c-0.494-0.458-0.438-1.254,0.12-1.632l0,0c0.371-0.251,0.89-0.234,1.194,0.096c0.087,0.094,0.182,0.184,0.286,0.27
						c0.311,0.256,0.623,0.417,0.937,0.482c0.313,0.066,0.588,0.031,0.822-0.102c0.234-0.133,0.379-0.336,0.436-0.608
						c0.057-0.273-0.022-0.522-0.238-0.75c-0.215-0.227-0.458-0.587-0.862-0.671c0,0-0.738-0.165-0.882-0.342
						c-0.268-0.328-0.084-1.068,0.271-1.3c0.232-0.152,1.086,0.227,1.086,0.227c0.299,0.063,0.559,0.035,0.779-0.085
						c0.22-0.119,0.355-0.298,0.405-0.537c0.05-0.239-0.002-0.457-0.156-0.654c-0.154-0.197-0.381-0.327-0.68-0.39
						c-0.286-0.06-0.566-0.067-0.841-0.02c-0.519,0.087-1.032-0.173-1.261-0.647l-0.053-0.11c-0.181-0.374,0-0.835,0.395-0.967
						c0.782-0.26,1.627-0.295,2.537-0.105c0.911,0.191,1.606,0.58,2.087,1.169c0.48,0.589,0.642,1.255,0.487,1.999
						C347.86,192.834,347.369,193.376,346.547,193.695z"/>
				</g>
				<path style="fill:#FA445C;" d="M360.5,194.694c0.088-0.368,0.102-0.761,0.023-1.173c-0.225-1.176-1.159-2.126-2.331-2.371
					c-1.261-0.264-2.494,0.313-3.142,1.343c-0.181-1.203-1.08-2.226-2.341-2.489c-1.535-0.321-2.98,0.571-3.402,2.078
					c-0.4,1.427,0.36,2.786,1.174,3.906c0.987,1.358,1.976,2.729,3.029,4.036c0.085,0.105,3.809-2.141,4.164-2.353
					C358.847,196.974,360.162,196.114,360.5,194.694z"/>
			</g>
		</g>
		<g>
			<g>
				<path style="fill:#F13C45;" d="M639.779,332.273l-34.783-6.784c-9.146-1.784-18.006,4.185-19.79,13.331l-3.605,18.486
					c-1.784,9.146,4.185,18.007,13.331,19.79l3.646,0.711l10.651,15.811l15.811-10.65l4.675,0.912
					c9.146,1.784,18.006-4.184,19.79-13.331l3.606-18.486C654.893,342.918,648.925,334.057,639.779,332.273z"/>
				<path style="fill:#FFFFFF;" d="M633.89,353.917c0.251-1.022,0.298-2.114,0.087-3.261c-0.601-3.274-3.178-5.933-6.43-6.638
					c-3.499-0.759-6.938,0.819-8.762,3.668c-0.479-3.348-2.956-6.209-6.455-6.968c-4.259-0.924-8.294,1.527-9.5,5.705
					c-1.142,3.957,0.943,7.75,3.182,10.88c2.716,3.796,5.435,7.625,8.335,11.283c0.234,0.294,10.631-5.873,11.624-6.452
					C629.249,360.22,632.92,357.857,633.89,353.917z"/>
			</g>
			<g>
				<g>
					<path style="fill:#FFB54A;" d="M603.18,228.054l68.997,12.005c7.096,1.235,11.848,7.988,10.613,15.085
						c-1.235,7.096-7.988,11.848-15.085,10.613l-56.862-9.893l-12.135-2.111c-7.096-1.235-11.848-7.988-10.614-15.085
						C589.33,231.571,596.084,226.819,603.18,228.054z"/>
					<g>
						
							<line style="fill:none;stroke:#FFFFFF;stroke-linecap:round;stroke-miterlimit:10;" x1="663.316" y1="256.016" x2="611.19" y2="246.947"/>
						
							<line style="fill:none;stroke:#FFFFFF;stroke-linecap:round;stroke-miterlimit:10;" x1="654.761" y1="246.901" x2="627.975" y2="242.241"/>
						
							<line style="fill:none;stroke:#FFFFFF;stroke-linecap:round;stroke-miterlimit:10;" x1="622.811" y1="241.342" x2="602.028" y2="237.726"/>
					</g>
				</g>
				<g>
					<path style="fill:#4E69FF;" d="M560.691,188.469l94.804,16.347c9.751,1.681,16.292,10.949,14.611,20.699
						c-1.681,9.751-10.948,16.292-20.699,14.611l-78.13-13.472l-12.438,7.941l1.689-9.795l-5.925-1.022
						c-9.751-1.681-16.292-10.948-14.611-20.699C541.673,193.329,550.941,186.788,560.691,188.469z"/>
					<g>
						
							<line style="fill:none;stroke:#FFFFFF;stroke-linecap:round;stroke-miterlimit:10;" x1="638.977" y1="211.185" x2="571.045" y2="199.472"/>
						
							<line style="fill:none;stroke:#FFFFFF;stroke-linecap:round;stroke-miterlimit:10;" x1="615.469" y1="223.545" x2="578.836" y2="217.229"/>
						
							<line style="fill:none;stroke:#FFFFFF;stroke-linecap:round;stroke-miterlimit:10;" x1="630.742" y1="218.491" x2="595.752" y2="212.458"/>
						
							<line style="fill:none;stroke:#FFFFFF;stroke-linecap:round;stroke-miterlimit:10;" x1="590.544" y1="211.56" x2="569.584" y2="207.946"/>
					</g>
				</g>
				<circle style="fill:#F13C45;" cx="663.316" cy="211.304" r="14.555"/>
				<g>
					
						<text transform="matrix(0.9859 0.1671 -0.1671 0.9859 658.2941 217.1621)" style="fill:#FFFFFF; font-family:'GothamBold'; font-size:19.3255px;">1</text>
				</g>
			</g>
		</g>
	</g>
</g>
<g id="DESIGNED_BY_FREEPIK">
	<g>
		<g>
			<g id="XMLID_197_">
				<g id="XMLID_216_">
					<path id="XMLID_224_" d="M385.064,463.607c-0.431,0.441-0.8,0.927-1.104,1.447l-0.463-0.24c-0.067-0.296-0.348-0.5-0.656-0.464
						c-0.33,0.039-0.565,0.337-0.527,0.667c0.039,0.33,0.337,0.565,0.667,0.527c0.065-0.008,0.126-0.026,0.183-0.052l0.45,0.233
						c-0.25,0.552-0.431,1.134-0.537,1.737l0.743,0.131c0.229-1.301,0.846-2.497,1.785-3.459L385.064,463.607z"/>
					<path id="XMLID_223_" d="M390.529,461.314c-0.17,0-0.339,0.006-0.508,0.017l-0.073-0.624c0.187-0.149,0.295-0.388,0.265-0.642
						c-0.046-0.392-0.401-0.672-0.792-0.625c-0.392,0.046-0.672,0.401-0.626,0.792c0.03,0.253,0.189,0.459,0.403,0.561l0.073,0.622
						c-0.711,0.116-1.397,0.331-2.052,0.643l0.326,0.681c0.93-0.445,1.934-0.671,2.983-0.671c0.495,0,0.989,0.053,1.469,0.157
						l0.16-0.738C391.626,461.373,391.078,461.314,390.529,461.314z"/>
					<path id="XMLID_222_" d="M397.106,463.852c0.329-0.04,0.564-0.34,0.523-0.67c-0.04-0.329-0.34-0.564-0.67-0.523
						c-0.308,0.038-0.533,0.303-0.528,0.606l-0.414,0.362c-0.416-0.428-0.886-0.81-1.402-1.135l-0.402,0.639
						c1.13,0.712,2.013,1.719,2.553,2.914l0.688-0.311c-0.25-0.552-0.565-1.068-0.938-1.539l0.4-0.349
						C396.977,463.856,397.04,463.859,397.106,463.852z"/>
					<path id="XMLID_221_" d="M389.984,471.482c-0.384,0.023-0.772,0.035-1.152,0.035c-0.877,0-1.726-0.06-2.469-0.178
						c-0.389-0.062-0.843-0.154-1.265-0.291c1.042,1.854,3.057,3.113,5.367,3.113c2.844,0,5.241-1.909,5.926-4.486
						c-0.679,0.448-1.499,0.822-2.449,1.118C392.767,471.159,391.398,471.397,389.984,471.482z"/>
					<path id="XMLID_217_" d="M390.529,462.824c-3.339,0-6.055,2.656-6.055,5.92c0,0.424,0.046,0.846,0.137,1.256
						c0.671,0.481,2.695,0.886,5.326,0.728c2.868-0.173,5.276-0.954,6.646-2.15c-0.005-0.194-0.021-0.388-0.045-0.579
						C396.159,465.049,393.576,462.824,390.529,462.824z M388.379,469.313c-1.016,0-1.842-0.826-1.842-1.842
						s0.827-1.842,1.842-1.842c1.016,0,1.842,0.827,1.842,1.842S389.395,469.313,388.379,469.313z M393.097,468.409
						c-0.747,0-1.355-0.608-1.355-1.355s0.608-1.355,1.355-1.355c0.747,0,1.355,0.608,1.355,1.355S393.844,468.409,393.097,468.409z
						"/>
				</g>
				<path id="XMLID_214_" d="M406.469,464.684c-0.294-0.116-0.802-0.308-1.377-0.236c-0.549,0.068-0.84,0.339-0.84,1.003v0.862
					h2.219v1.71h-2.219v5.433h-1.924v-5.433h-1.334v-1.71h1.334v-0.885c0-1.673,0.892-2.772,2.558-2.772
					c0.64,0,1.152,0.121,1.584,0.307L406.469,464.684z"/>
				<path id="XMLID_212_" d="M411.153,468.003c-0.176-0.03-0.356-0.046-0.524-0.046c-0.892,0-1.504,0.546-1.504,1.607v3.892h-1.924
					v-7.143h1.865v0.781c0.45-0.671,1.135-0.973,2.012-0.973c0.413,0,0.844,0.127,1.09,0.335L411.153,468.003z"/>
				<path id="XMLID_209_" d="M418.79,469.874c0,0.221-0.015,0.487-0.037,0.649h-5.064c0.206,1.032,0.929,1.482,1.836,1.482
					c0.619,0,1.29-0.251,1.806-0.685l1.128,1.238c-0.811,0.745-1.843,1.084-3.044,1.084c-2.19,0-3.708-1.489-3.708-3.737
					c0-2.249,1.474-3.782,3.612-3.782C417.374,466.121,418.782,467.647,418.79,469.874z M413.696,469.21h3.162
					c-0.177-0.914-0.73-1.43-1.555-1.43C414.396,467.78,413.865,468.326,413.696,469.21z"/>
				<path id="XMLID_206_" d="M426.412,469.874c0,0.221-0.015,0.487-0.037,0.649h-5.064c0.206,1.032,0.929,1.482,1.835,1.482
					c0.619,0,1.29-0.251,1.806-0.685l1.128,1.238c-0.811,0.745-1.843,1.084-3.045,1.084c-2.19,0-3.708-1.489-3.708-3.737
					c0-2.249,1.475-3.782,3.612-3.782C424.997,466.121,426.405,467.647,426.412,469.874z M421.318,469.21h3.163
					c-0.177-0.914-0.73-1.43-1.556-1.43C422.019,467.78,421.488,468.326,421.318,469.21z"/>
				<path id="XMLID_203_" d="M434.725,469.881c0,2.145-1.489,3.76-3.457,3.76c-0.958,0-1.637-0.376-2.101-0.929v3.693h-1.917
					v-10.092h1.88v0.789c0.464-0.582,1.15-0.98,2.131-0.98C433.236,466.121,434.725,467.736,434.725,469.881z M429.07,469.881
					c0,1.128,0.744,1.968,1.835,1.968c1.135,0,1.843-0.877,1.843-1.968c0-1.091-0.708-1.968-1.843-1.968
					C429.815,467.913,429.07,468.753,429.07,469.881z"/>
				<path id="XMLID_200_" d="M437.816,463.976c0,0.693-0.538,1.224-1.231,1.224c-0.693,0-1.224-0.531-1.224-1.224
					c0-0.693,0.531-1.238,1.224-1.238C437.277,462.738,437.816,463.283,437.816,463.976z M437.558,473.456h-1.924v-7.143h1.924
					V473.456z"/>
				<path id="XMLID_198_" d="M440.768,468.856l2.691-2.543h2.359l-3.465,3.362l3.487,3.782h-2.367l-2.705-2.89v2.89h-1.924v-10.616
					h1.924V468.856z"/>
			</g>
			<g>
				<path d="M309.674,473.392v-1.051c-0.525,0.715-1.386,1.226-2.378,1.226c-1.838,0-3.137-1.4-3.137-3.691
					c0-2.247,1.284-3.706,3.137-3.706c0.948,0,1.809,0.467,2.378,1.24v-3.75h1.095v9.731H309.674z M309.674,471.48v-3.195
					c-0.394-0.613-1.24-1.138-2.116-1.138c-1.415,0-2.261,1.167-2.261,2.728c0,1.561,0.846,2.714,2.261,2.714
					C308.434,472.589,309.28,472.093,309.674,471.48z"/>
				<path d="M312.184,469.861c0-2.043,1.459-3.691,3.472-3.691c2.13,0,3.385,1.663,3.385,3.779v0.277h-5.704
					c0.088,1.328,1.021,2.436,2.539,2.436c0.802,0,1.619-0.321,2.174-0.89l0.525,0.715c-0.7,0.7-1.648,1.079-2.801,1.079
					C313.686,473.567,312.184,472.064,312.184,469.861z M315.641,467.075c-1.503,0-2.247,1.269-2.305,2.349h4.625
					C317.946,468.373,317.246,467.075,315.641,467.075z"/>
				<path d="M319.828,472.458l0.569-0.788c0.467,0.54,1.357,1.007,2.32,1.007c1.08,0,1.663-0.511,1.663-1.211
					c0-1.707-4.362-0.656-4.362-3.268c0-1.094,0.948-2.028,2.626-2.028c1.196,0,2.043,0.452,2.612,1.021l-0.511,0.759
					c-0.423-0.511-1.196-0.89-2.101-0.89c-0.963,0-1.561,0.482-1.561,1.109c0,1.546,4.362,0.525,4.362,3.268
					c0,1.182-0.948,2.13-2.772,2.13C321.52,473.567,320.543,473.216,319.828,472.458z"/>
				<path d="M326.671,464.609c0-0.408,0.336-0.744,0.729-0.744c0.408,0,0.744,0.336,0.744,0.744c0,0.409-0.336,0.729-0.744,0.729
					C327.006,465.338,326.671,465.017,326.671,464.609z M326.86,473.392v-7.047h1.094v7.047H326.86z"/>
				<path d="M329.763,475.201l0.554-0.817c0.583,0.7,1.284,0.963,2.291,0.963c1.167,0,2.261-0.569,2.261-2.116v-1.007
					c-0.51,0.715-1.371,1.255-2.364,1.255c-1.838,0-3.137-1.371-3.137-3.647c0-2.261,1.284-3.662,3.137-3.662
					c0.948,0,1.795,0.467,2.364,1.24v-1.065h1.094v6.842c0,2.334-1.634,3.064-3.355,3.064
					C331.412,476.251,330.595,476.018,329.763,475.201z M334.87,471.364v-3.078c-0.379-0.613-1.226-1.138-2.101-1.138
					c-1.415,0-2.261,1.124-2.261,2.684c0,1.547,0.846,2.685,2.261,2.685C333.644,472.516,334.49,471.977,334.87,471.364z"/>
				<path d="M342.543,473.392v-4.61c0-1.24-0.627-1.634-1.576-1.634c-0.861,0-1.678,0.525-2.086,1.094v5.15h-1.095v-7.047h1.095
					v1.021c0.496-0.583,1.459-1.196,2.509-1.196c1.474,0,2.247,0.744,2.247,2.276v4.946H342.543z"/>
				<path d="M345.052,469.861c0-2.043,1.459-3.691,3.472-3.691c2.13,0,3.385,1.663,3.385,3.779v0.277h-5.704
					c0.087,1.328,1.021,2.436,2.538,2.436c0.802,0,1.619-0.321,2.174-0.89l0.525,0.715c-0.7,0.7-1.649,1.079-2.801,1.079
					C346.555,473.567,345.052,472.064,345.052,469.861z M348.51,467.075c-1.503,0-2.247,1.269-2.305,2.349h4.625
					C350.815,468.373,350.115,467.075,348.51,467.075z"/>
				<path d="M358.417,473.392v-1.051c-0.525,0.715-1.386,1.226-2.378,1.226c-1.838,0-3.137-1.4-3.137-3.691
					c0-2.247,1.284-3.706,3.137-3.706c0.948,0,1.81,0.467,2.378,1.24v-3.75h1.094v9.731H358.417z M358.417,471.48v-3.195
					c-0.394-0.613-1.24-1.138-2.116-1.138c-1.415,0-2.261,1.167-2.261,2.728c0,1.561,0.846,2.714,2.261,2.714
					C357.176,472.589,358.022,472.093,358.417,471.48z"/>
				<path d="M364.733,473.392v-9.731h1.094v3.75c0.569-0.773,1.415-1.24,2.378-1.24c1.838,0,3.137,1.459,3.137,3.706
					c0,2.29-1.298,3.691-3.137,3.691c-0.992,0-1.853-0.51-2.378-1.226v1.051H364.733z M367.928,472.589
					c1.43,0,2.276-1.152,2.276-2.714c0-1.561-0.846-2.728-2.276-2.728c-0.861,0-1.721,0.525-2.101,1.138v3.195
					C366.207,472.093,367.068,472.589,367.928,472.589z"/>
				<path d="M372.538,475.157c0.16,0.073,0.423,0.117,0.598,0.117c0.481,0,0.802-0.161,1.05-0.744l0.467-1.065l-2.947-7.12h1.182
					l2.349,5.777l2.334-5.777h1.196l-3.531,8.477c-0.423,1.021-1.138,1.415-2.072,1.43c-0.233,0-0.598-0.044-0.802-0.102
					L372.538,475.157z"/>
			</g>
		</g>
	</g>
</g>
</svg>
